<svg class="icon" style="width: 10em;height: 10em;vertical-align: middle;fill: currentColor;overflow: hidden;" viewBox="0 0 1024 1024" version="1.1" xmlns="http://www.w3.org/2000/svg" p-id="3380"><path d="M848 624c26.88 0 46.56 6.56 60.8 17.92 2.336 14.336 3.2 29.856 3.2 46.08 0 59.968-11.84 110.336-64.032 124.192L848 624z m-607.968-28.192L240 816c-19.776 0-35.68-3.52-48.352-9.952-12.032-22.72-15.648-52.928-15.648-86.048 0-59.968 11.84-110.336 64.032-124.192z" fill="#FFDBCC" p-id="3381"></path><path d="M528 192a309.536 309.536 0 0 1 45.792 3.424l0.48 0.096c3.264 0.48 6.464 1.024 9.664 1.6l2.208 0.448a291.456 291.456 0 0 1 30.784 7.648l1.792 0.544c3.392 1.056 6.72 2.176 10.016 3.328l1.152 0.416a298.144 298.144 0 0 1 58.464 28.16c3.84 2.4 7.616 4.896 11.36 7.456l-7.872-5.248A303.776 303.776 0 0 1 832 496l0.032 48.704C901.44 551.136 928 600.96 928 688c0 93.472-30.656 144-112 144H800V496a271.552 271.552 0 0 0-105.408-215.04l-26.88 39.2a16 16 0 0 1-22.24 4.16A206.944 206.944 0 0 0 528 288c-42.56 0-83.136 12.8-117.44 36.32a16 16 0 0 1-22.272-4.16l-26.848-39.232A271.552 271.552 0 0 0 256 496V832h-16C158.656 832 128 781.472 128 688c0-87.072 26.624-136.864 96-143.296V496a303.776 303.776 0 0 1 204.224-287.232 300.736 300.736 0 0 1 41.632-11.2l2.24-0.448c3.168-0.576 6.4-1.12 9.6-1.6l0.544-0.096A302.464 302.464 0 0 1 528 192l-10.336 0.16c3.456-0.096 6.88-0.16 10.336-0.16z m22.016 375.2l4.32 0.224a41.952 41.952 0 0 1 37.632 39.84l7.232 158.72a0.48 0.48 0 0 0 0.928 0.032l9.792-78.336a35.392 35.392 0 0 1 69.728-3.04l12.96 60.672 4.48-11.136a48 48 0 0 1 40.096-29.952l4.48-0.224H768v32h-26.336a16 16 0 0 0-14.848 10.048l-7.968 19.904a29.12 29.12 0 0 1-55.52-4.736l-14.976-69.856a3.392 3.392 0 0 0-6.688 0.288l-9.792 78.336a32.48 32.48 0 0 1-64.64-2.56l-7.2-158.72a9.952 9.952 0 0 0-19.872-0.544l-17.344 169.76a41.6 41.6 0 0 1-82.752-0.48l-7.904-87.104a4.16 4.16 0 0 0-8.32-0.16l-7.616 56.032a32.32 32.32 0 0 1-64.096-0.096l-4.064-30.432-2.304 3.072a48 48 0 0 1-32.512 17.056L308.896 736H288v-32h20.896a16 16 0 0 0 15.776-13.376l3.52-21.248a23.296 23.296 0 0 1 46.08 0.736l9.6 71.776a0.32 0.32 0 0 0 0.64 0l7.648-56.064a36.16 36.16 0 0 1 71.872 1.6l7.904 87.136a9.6 9.6 0 0 0 19.072 0.096l17.28-169.728a41.984 41.984 0 0 1 41.728-37.728zM224 576.96l-5.76 0.864C175.488 585.824 160 620.32 160 688c0 70.272 16.672 104.768 63.328 110.976l0.672 0.032V576.96z m608 0v222.048l0.672-0.032C879.36 792.768 896 758.272 896 688c0-67.68-15.456-102.176-58.24-110.176L832 576.96zM528 224h-3.84a276.416 276.416 0 0 0-8.96 0.32l3.008-0.16c-3.52 0.128-7.072 0.32-10.624 0.608l7.584-0.48a274.464 274.464 0 0 0-10.208 0.672l2.624-0.192c-4.192 0.32-8.384 0.704-12.544 1.216l9.92-1.024a272.96 272.96 0 0 0-10.4 1.088l0.48-0.064a272.224 272.224 0 0 0-8.736 1.184l8.256-1.12a271.648 271.648 0 0 0-12.992 1.92l4.736-0.8a270.848 270.848 0 0 0-23.04 4.576l-1.44 0.352 1.44-0.352c-3.136 0.768-6.272 1.6-9.408 2.464l7.968-2.112a269.92 269.92 0 0 0-10.624 2.88l2.656-0.768a269.6 269.6 0 0 0-24.16 8.096l3.648-1.376c-2.912 1.056-5.792 2.208-8.64 3.36l4.992-1.984a270.208 270.208 0 0 0-9.184 3.744l4.16-1.76c-2.08 0.864-4.128 1.728-6.176 2.656l2.016-0.896a270.624 270.624 0 0 0-16.256 7.68l4.544-2.304a271.04 271.04 0 0 0-7.712 3.936l-7.392 4.064-0.768 0.448-5.088 2.976 18.144 26.496 3.872-2.304a238.72 238.72 0 0 1 107.68-30.816L528 256c42.048 0 82.528 10.88 118.176 31.04l3.84 2.304 18.112-26.464-4.896-2.944a271.232 271.232 0 0 0-11.328-6.144l2.976 1.536a270.624 270.624 0 0 0-8.32-4.192l5.344 2.656a270.88 270.88 0 0 0-8.928-4.352l3.616 1.696a270.08 270.08 0 0 0-12.032-5.472l8.416 3.776a270.464 270.464 0 0 0-9.92-4.416l1.504 0.64a269.728 269.728 0 0 0-8.544-3.488l7.04 2.848a270.144 270.144 0 0 0-10.464-4.128l3.424 1.28a269.568 269.568 0 0 0-10.144-3.68l6.72 2.4a269.92 269.92 0 0 0-17.44-5.792l7.232 2.24a269.856 269.856 0 0 0-10.56-3.2l3.328 0.96a269.888 269.888 0 0 0-10.848-2.976l7.52 2.016a269.984 269.984 0 0 0-9.12-2.4l1.6 0.384a270.656 270.656 0 0 0-24.64-4.96l4.768 0.768a271.968 271.968 0 0 0-12.992-1.92l8.224 1.152a271.904 271.904 0 0 0-8.704-1.184l0.48 0.064a273.28 273.28 0 0 0-10.4-1.088l9.92 1.024A274.752 274.752 0 0 0 528 224z" fill="#362F2C" p-id="3382"></path></svg>