<svg class="icon" style="width: 2em;height: 2em;vertical-align: middle;fill: currentColor;overflow: hidden;" viewBox="0 0 1024 1024" version="1.1" xmlns="http://www.w3.org/2000/svg" p-id="6191"><path d="M523.636364 954.181818c-79.476364 0-158.114909-18.269091-228.305455-52.852363l-136.866909 28.811636a34.885818 34.885818 0 0 1-41.355636-41.332364l23.016727-109.358545C78.824727 704.907636 46.545455 616.843636 46.545455 523.636364 46.545455 286.208 260.561455 93.090909 523.636364 93.090909 786.688 93.090909 1000.727273 286.208 1000.727273 523.636364 1000.727273 761.041455 786.688 954.181818 523.636364 954.181818z m232.727272-384a46.545455 46.545455 0 1 0-0.046545-93.137454A46.545455 46.545455 0 0 0 756.363636 570.181818z m-232.727272 0a46.545455 46.545455 0 1 0-0.046546-93.137454A46.545455 46.545455 0 0 0 523.636364 570.181818z m-232.727273 0a46.545455 46.545455 0 1 0-0.046546-93.137454A46.545455 46.545455 0 0 0 290.909091 570.181818z" fill="#797979" p-id="6192"></path></svg>